<svg xmlns="http://www.w3.org/2000/svg" viewBox="0 0 32 32">
  <defs>
    <linearGradient id="face" x1="0" y1="0" x2="0" y2="1">
      <stop offset="0%" stop-color="#e8e4df"/>
      <stop offset="100%" stop-color="#c9c4bd"/>
    </linearGradient>
    <linearGradient id="edge" x1="0" y1="0" x2="1" y2="1">
      <stop offset="0%" stop-color="#5c5347"/>
      <stop offset="100%" stop-color="#3d362c"/>
    </linearGradient>
    <linearGradient id="handle" x1="0" y1="0" x2="1" y2="0">
      <stop offset="0%" stop-color="#a89070"/>
      <stop offset="40%" stop-color="#7a6248"/>
      <stop offset="100%" stop-color="#5c4a35"/>
    </linearGradient>
    <filter id="shadow" x="-10%" y="-10%" width="130%" height="130%">
      <feDropShadow dx="0.5" dy="1" stdDeviation="0.8" flood-color="#000" flood-opacity="0.35"/>
    </filter>
  </defs>

  <rect width="32" height="32" fill="#1c1917"/>

  <g filter="url(#shadow)" transform="rotate(-12 16 17)">
    <rect x="5" y="10" width="22" height="7" rx="1.4" fill="url(#edge)"/>
    <rect x="5" y="10" width="22" height="2.4" rx="1.4" fill="url(#face)"/>
    <line x1="6.2" y1="11.2" x2="25.8" y2="11.2" stroke="#9a9088" stroke-width="0.4" stroke-linecap="round" opacity="0.6"/>
    <path d="M27 10 L27 13.2 Q27 17 23.8 17 L27 17 Z" fill="#2f2820" opacity="0.55"/>

    <path d="M13.4 17 L13.4 29 Q13.4 30 14.4 30 L17.6 30 Q18.6 30 18.6 29 L18.6 17 Z" fill="url(#handle)"/>
    <path d="M14.6 18 L14.6 29.5" stroke="#5c4a35" stroke-width="0.3" opacity="0.5"/>
    <path d="M16 18 L16 29.5" stroke="#5c4a35" stroke-width="0.25" opacity="0.4"/>
    <path d="M17.4 18 L17.4 29.5" stroke="#5c4a35" stroke-width="0.3" opacity="0.5"/>
    <path d="M13.4 17 L12.6 18.2 L13.4 19 L18.6 19 L19.4 18.2 L18.6 17 Z" fill="#3d362c"/>
    <path d="M14.2 17 L13.8 18 L14.6 19 L17.4 19 L18.2 18 L17.8 17 Z" fill="#6b5a47" opacity="0.7"/>
  </g>

  <g opacity="0.9">
    <circle cx="29" cy="11" r="0.5" fill="#fff"/>
    <circle cx="30.2" cy="9.6" r="0.35" fill="#ffe9b0"/>
    <circle cx="28.2" cy="9.2" r="0.3" fill="#ffd27a"/>
  </g>
</svg>
